<svg width="100" height="100" viewBox="0 0 100 100" fill="none" xmlns="http://www.w3.org/2000/svg">
<path d="M73.3587 66.7438C70.1411 69.8028 66.2138 72.1759 61.86 73.69C57.5064 75.2049 52.8356 75.8231 48.1858 75.5007C43.5359 75.1783 39.0234 73.9232 34.9747 71.8253C30.9261 69.7282 27.4426 66.8416 24.7765 63.3745C27.761 63.1654 30.6399 62.281 33.1495 60.8025C33.1495 60.8025 31.2573 61.2569 28.8826 61.5912C25.9353 60.2076 23.4647 58.1161 21.741 55.5455C20.0173 52.975 19.1069 50.0243 19.1094 47.0165V0C28.1212 8.81593 34.4437 19.6067 37.4543 31.31C37.7002 32.2617 37.9368 33.2219 38.1544 34.1992C38.1544 34.1992 38.249 31.9016 38.2206 29.7154C40.5367 24.8837 43.8472 20.496 47.9749 16.7867C49.1065 15.7563 50.2971 14.7804 51.5417 13.8632C51.466 14.5319 49.7252 33.8306 49.3373 38.0573C47.6627 38.4602 46.007 38.8203 46.007 38.8203C47.0943 38.8721 48.1838 38.8721 49.271 38.8203C49.6968 38.8203 50.1415 38.8203 50.6145 38.8203C53.0417 38.8226 55.3688 39.698 57.0842 41.2541C58.7997 42.8102 59.7633 44.9198 59.7633 47.1193C59.7633 53.5837 53.0365 55.084 52.9419 55.144L50.4253 55.7527C51.3714 53.7037 51.9012 52.3234 50.9173 50.6944C50.3812 49.802 49.476 49.139 48.4006 48.8512C48.0054 48.7401 47.5938 48.6853 47.1802 48.6883C46.2349 48.6837 45.3146 48.9631 44.5632 49.4828C43.8117 50.0024 43.2714 50.733 43.0268 51.5604C42.1891 55.009 42.6041 58.6107 44.2099 61.8282C45.8157 65.0454 48.5262 67.7066 51.9372 69.4144C55.3481 71.1214 59.2768 71.7841 63.1373 71.3032C66.9977 70.8213 70.5829 69.2224 73.3587 66.7438Z" fill="#ECE4D7"/>
<path d="M53.2268 16.6924H84.0887V47.0508C84.0887 54.6897 80.9108 62.0477 75.1888 67.6569C69.4667 73.2665 61.6211 76.7156 53.2174 77.3148L51.4766 57.1331C54.2804 56.937 56.8992 55.7892 58.8097 53.9193C60.7201 52.0492 61.7814 49.5948 61.7814 47.0465C61.7814 44.4982 60.7201 42.0437 58.8097 40.1738C56.8992 38.3038 54.2804 37.1561 51.4766 36.9599L53.2268 16.6924Z" fill="#FA5E37"/>
<path d="M3.22477 97.7795C2.64585 97.7872 2.078 97.6346 1.59748 97.3423C1.11099 97.0431 0.729902 96.6238 0.5 96.1334L1.80562 95.5676C1.93779 95.8256 2.13174 96.0546 2.37328 96.2363C2.62352 96.3992 2.92675 96.4807 3.23423 96.4678C3.40103 96.4669 3.56678 96.4438 3.7262 96.3992C3.88552 96.3521 4.03103 96.2732 4.15195 96.1677C4.28894 96.04 4.3896 95.8839 4.44524 95.7133C4.52783 95.4664 4.56615 95.2084 4.55877 94.9503V89.9177H6.1293V95.0017C6.14292 95.4647 6.05275 95.926 5.86439 96.3563C5.71679 96.6898 5.47932 96.9848 5.17373 97.2137C4.89785 97.4229 4.57495 97.5746 4.22763 97.6595C3.90132 97.7427 3.56366 97.783 3.22477 97.7795ZM11.8343 97.7795C11.2336 97.7975 10.6379 97.6758 10.1029 97.428C9.64557 97.206 9.25559 96.8845 8.9676 96.4935C8.67714 96.1009 8.46275 95.6653 8.33371 95.2075C8.06899 94.2739 8.06899 93.2948 8.33371 92.3611C8.46436 91.9007 8.67856 91.4635 8.9676 91.0666C9.26363 90.6782 9.6556 90.3584 10.1124 90.1321C10.6497 89.8903 11.2443 89.7728 11.8437 89.7891C12.4434 89.7711 13.0385 89.8886 13.5751 90.1321C14.0319 90.3584 14.4239 90.6782 14.7199 91.0666C15.0125 91.4618 15.227 91.8999 15.3538 92.3611C15.6057 93.2965 15.6057 94.2722 15.3538 95.2075C15.2288 95.667 15.0141 96.1026 14.7199 96.4935C14.4292 96.8862 14.0359 97.2068 13.5751 97.428C13.0297 97.6835 12.4194 97.8052 11.8059 97.7795H11.8343ZM11.8343 96.4678C12.1884 96.4764 12.5374 96.3906 12.8371 96.2192C13.1133 96.0546 13.3408 95.8308 13.4994 95.5676C13.6674 95.3001 13.7887 95.0112 13.8589 94.7102C13.933 94.4119 13.9711 94.1075 13.9725 93.8015C13.9727 93.4783 13.9346 93.1567 13.8589 92.8412C13.7914 92.5412 13.6734 92.2514 13.5089 91.9839C13.3471 91.7276 13.12 91.5098 12.8466 91.3495C12.5398 91.1874 12.1891 91.1077 11.8343 91.118C11.4767 91.1043 11.1232 91.1917 10.8219 91.3666C10.5458 91.5312 10.3184 91.755 10.1597 92.0182C9.99553 92.2874 9.87443 92.5755 9.80016 92.8755C9.72864 93.1773 9.69373 93.4842 9.69609 93.7929C9.69808 94.1127 9.73299 94.4308 9.80016 94.7445C9.87264 95.0463 9.99714 95.3352 10.1691 95.6019C10.3271 95.8582 10.5551 96.0743 10.8314 96.2277C11.1238 96.3915 11.4624 96.4747 11.8059 96.4678H11.8343ZM21.0209 97.7795C20.42 97.7992 19.8238 97.6784 19.2895 97.428C18.8271 97.2094 18.4333 96.8879 18.1448 96.4935C17.8506 96.1026 17.636 95.667 17.5109 95.2075C17.2462 94.2739 17.2462 93.2948 17.5109 92.3611C17.6377 91.8999 17.8522 91.4618 18.1448 91.0666C18.4386 90.6765 18.8312 90.3567 19.2895 90.1321C19.8328 89.9066 20.4233 89.7891 21.0209 89.7891C21.6186 89.7891 22.2091 89.9066 22.7523 90.1321C23.2062 90.3584 23.5951 90.679 23.8876 91.0666C24.1802 91.4618 24.3947 91.8999 24.5215 92.3611C24.7863 93.2948 24.7863 94.2739 24.5215 95.2075C24.3965 95.667 24.1818 96.1026 23.8876 96.4935C23.6005 96.8853 23.2104 97.2068 22.7523 97.428C22.2181 97.6784 21.6218 97.7992 21.0209 97.7795ZM21.0209 96.4678C21.3561 96.4687 21.6844 96.3821 21.967 96.2192C22.2432 96.0546 22.4706 95.8308 22.6293 95.5676C22.8005 95.301 22.9249 95.012 22.9983 94.7102C23.085 94.4068 23.1389 94.0972 23.1591 93.7843C23.1577 93.462 23.1229 93.1405 23.055 92.8241C22.9843 92.5232 22.863 92.2343 22.6955 91.9668C22.5373 91.7113 22.3134 91.4935 22.0427 91.3323C21.7359 91.1703 21.3852 91.0906 21.0304 91.1008C20.6726 91.0863 20.3188 91.1729 20.018 91.3495C19.7395 91.5115 19.5115 91.7361 19.3558 92.0011C19.1839 92.2668 19.0624 92.5566 18.9963 92.8584C18.9217 93.1593 18.8836 93.4671 18.8827 93.7758C18.8831 94.0955 18.9211 94.4145 18.9963 94.7274C19.0697 95.0275 19.1908 95.3164 19.3558 95.5847C19.5138 95.8411 19.7418 96.0571 20.018 96.2106C20.3175 96.3829 20.6661 96.4729 21.0209 96.4678ZM30.2075 97.6509V89.9349H31.7213V93.0299H35.3827V89.9349H36.887V97.6509H35.3827V94.3159H31.7213V97.6509H30.2075ZM39.9902 91.2552C39.8769 91.256 39.7643 91.2372 39.6593 91.1977C39.5542 91.1592 39.4588 91.1017 39.3787 91.0288C39.2984 90.9568 39.235 90.8702 39.1923 90.7751C39.1494 90.6799 39.128 90.5779 39.1293 90.475C39.125 90.373 39.1448 90.271 39.1872 90.1766C39.2295 90.0823 39.2937 89.9966 39.3752 89.9263C39.4547 89.8517 39.5503 89.7925 39.6561 89.7523C39.7619 89.7128 39.8756 89.6931 39.9902 89.6948C40.104 89.6922 40.2171 89.7111 40.3228 89.7497C40.4284 89.7874 40.5243 89.8449 40.6048 89.9177C40.6852 89.9915 40.7486 90.078 40.7909 90.1741C40.8333 90.2692 40.8538 90.3721 40.8512 90.475C40.8525 90.5779 40.831 90.6799 40.7882 90.7751C40.7454 90.8702 40.6821 90.9568 40.6019 91.0288C40.5216 91.1017 40.4263 91.1592 40.3213 91.1977C40.2161 91.2372 40.1036 91.256 39.9902 91.2552ZM39.2428 97.6509V92.0011H40.6998V97.6509H39.2428ZM45.1465 100L44.3707 98.9284C44.8365 98.9043 45.299 98.8409 45.752 98.7397C46.0209 98.6883 46.2656 98.5623 46.4521 98.3797C46.5919 98.203 46.6619 97.9887 46.6508 97.7709V97.308C46.4757 97.4786 46.261 97.6115 46.022 97.6981C45.7831 97.7838 45.526 97.8207 45.2695 97.8052C44.7792 97.8164 44.297 97.6904 43.8881 97.4452C43.4669 97.1991 43.1373 96.8433 42.942 96.4249C42.5198 95.4141 42.5198 94.2979 42.942 93.2871C43.1447 92.8704 43.4725 92.5137 43.8881 92.2583C44.2941 92.0139 44.7728 91.8887 45.26 91.8982C45.5243 91.8965 45.787 91.9376 46.0358 92.0182C46.2591 92.0919 46.46 92.2128 46.6224 92.3697V92.0268H48.0794V97.2137C48.0849 97.6321 48.034 98.0496 47.928 98.4568C47.8423 98.7775 47.6663 99.0732 47.4171 99.3142C47.1539 99.5508 46.8281 99.7214 46.471 99.8114C46.0448 99.9177 45.6069 99.9812 45.1654 100H45.1465ZM45.4965 96.5192C45.7179 96.5184 45.9356 96.4687 46.1304 96.3735C46.3245 96.2732 46.4948 96.1394 46.6318 95.9791V93.6643C46.5035 93.504 46.3361 93.3719 46.1424 93.2802C45.9487 93.1876 45.7342 93.137 45.5154 93.1327C45.318 93.1225 45.1208 93.1559 44.941 93.2305C44.7612 93.3059 44.6044 93.4191 44.4842 93.5614C44.2158 93.9344 44.0895 94.3776 44.1247 94.8217C44.1133 95.1338 44.1679 95.445 44.2855 95.7391C44.3799 95.9671 44.544 96.1669 44.7586 96.3135C44.9787 96.4566 45.2449 96.5287 45.5154 96.5192H45.4965ZM50.3689 97.6509V90.2864L51.8259 89.6777V92.5583C52.0155 92.3363 52.2625 92.1597 52.545 92.0439C52.8433 91.9265 53.1658 91.8682 53.4911 91.8725C53.9181 91.8596 54.3406 91.9548 54.7115 92.1468C55.0342 92.3371 55.2851 92.6123 55.4306 92.9356C55.6025 93.3248 55.6861 93.7423 55.6766 94.1616V97.6509H54.2385V94.5131C54.2648 94.1504 54.1691 93.7886 53.9641 93.4757C53.8652 93.3539 53.7327 93.2588 53.5798 93.1979C53.427 93.1379 53.2593 93.1156 53.0937 93.1327C52.9182 93.1182 52.7414 93.1405 52.5771 93.1988C52.4129 93.2571 52.2659 93.3488 52.1476 93.4671C51.9155 93.7637 51.8051 94.1247 51.8354 94.4873V97.6509H50.3689ZM64.1063 97.7795C63.6134 97.7847 63.1244 97.6998 62.6682 97.5309C62.2459 97.3706 61.8678 97.1279 61.5613 96.8193C61.2522 96.5132 61.0198 96.1506 60.8801 95.7562L62.2425 95.2932C62.42 95.6319 62.6864 95.9268 63.0183 96.1506C63.3415 96.3735 63.7381 96.4909 64.1441 96.4849C64.5184 96.5029 64.8893 96.4129 65.2038 96.2277C65.3356 96.1429 65.4412 96.0297 65.5109 95.8977C65.5804 95.7656 65.6115 95.619 65.6011 95.4733C65.6009 95.2649 65.5167 95.0635 65.3646 94.9074C65.1831 94.7403 64.9679 94.6065 64.7307 94.5131C64.4658 94.4016 64.1725 94.2987 63.8509 94.1958C63.5292 94.093 63.2264 93.9901 62.9048 93.8701C62.6002 93.7586 62.3113 93.6146 62.0438 93.4414C61.7828 93.2725 61.5663 93.0522 61.4099 92.7984C61.2395 92.488 61.1588 92.1434 61.1754 91.797C61.1919 91.4507 61.3052 91.1137 61.5045 90.8179C61.7423 90.4964 62.0683 90.2367 62.4506 90.0635C62.9318 89.8671 63.4561 89.7737 63.9833 89.7891C64.428 89.7797 64.8697 89.8551 65.2795 90.012C65.6402 90.1458 65.9634 90.3507 66.2256 90.6122C66.4662 90.8599 66.6438 91.1523 66.7459 91.4695L65.393 91.8725C65.2672 91.6161 65.0569 91.4009 64.7911 91.2569C64.5252 91.112 64.2167 91.046 63.9076 91.0666C63.5759 91.04 63.2436 91.112 62.9615 91.2723C62.8575 91.3366 62.7733 91.4241 62.717 91.5261C62.6608 91.6281 62.6342 91.7413 62.6398 91.8553C62.6371 91.941 62.6552 92.0259 62.6927 92.1048C62.7304 92.1828 62.7866 92.2531 62.8574 92.3097C63.0297 92.4452 63.2245 92.5549 63.4346 92.6355C63.6806 92.7324 63.9549 92.8267 64.2577 92.9184C64.5888 93.0213 64.9199 93.1413 65.2038 93.2699C65.5416 93.3908 65.8599 93.552 66.1499 93.75C66.4214 93.9378 66.6469 94.1736 66.8121 94.4445C66.9827 94.7591 67.0671 95.1055 67.0581 95.4561C67.0754 95.9011 66.9363 96.3392 66.6608 96.7079C66.3837 97.0551 66.0076 97.3277 65.5728 97.4966C65.1155 97.6766 64.6236 97.7727 64.1252 97.7795H64.1063ZM71.3157 97.7795C70.7982 97.7924 70.2882 97.6672 69.8492 97.4194C69.431 97.1708 69.1018 96.8159 68.9031 96.3992C68.6713 95.9037 68.558 95.3687 68.5719 94.8303C68.5565 94.291 68.6732 93.7552 68.9126 93.2613C69.1113 92.8421 69.4396 92.4855 69.8587 92.2325C70.3043 91.9848 70.8209 91.8596 71.3441 91.8725C71.9004 91.851 72.4501 91.989 72.9146 92.2668C73.3668 92.5506 73.6998 92.9647 73.8607 93.4414L72.4794 93.8701C72.3942 93.6557 72.2476 93.4663 72.0536 93.3214C71.8625 93.1928 71.6288 93.1267 71.3914 93.1327C71.204 93.131 71.0195 93.1722 70.8549 93.2519C70.6894 93.3308 70.5493 93.4465 70.4453 93.5871C70.2154 93.9669 70.0943 94.393 70.0943 94.826C70.0943 95.2589 70.2154 95.685 70.4453 96.0648C70.5455 96.2089 70.6856 96.3263 70.8521 96.4061C71.0177 96.4858 71.204 96.5244 71.3914 96.5192C71.6487 96.5261 71.8994 96.4498 72.1009 96.3049C72.3119 96.1471 72.4633 95.9345 72.5361 95.6962L73.9174 96.0734C73.7689 96.5835 73.4349 97.0328 72.9713 97.3509C72.4907 97.6492 71.9165 97.7992 71.3346 97.7795H71.3157ZM75.7813 97.6509V90.2864L77.2383 89.6777V92.5583C77.4275 92.3363 77.6744 92.1597 77.9573 92.0439C78.2553 91.9265 78.5779 91.8682 78.9034 91.8725C79.3301 91.8596 79.753 91.9548 80.1239 92.1468C80.4465 92.3371 80.6972 92.6123 80.8429 92.9356C81.0151 93.3248 81.0984 93.7423 81.0889 94.1616V97.6509H79.6319V94.5131C79.6584 94.1504 79.5628 93.7886 79.3575 93.4757C79.2582 93.3539 79.1257 93.2588 78.9734 93.1979C78.8201 93.1379 78.6527 93.1156 78.4871 93.1327C78.3111 93.1182 78.1342 93.1405 77.9705 93.1988C77.8059 93.2571 77.6593 93.3488 77.541 93.4671C77.3092 93.7637 77.1985 94.1247 77.2288 94.4873V97.6509H75.7813ZM85.8762 97.7795C85.4892 97.7958 85.1032 97.7332 84.7465 97.596C84.3898 97.4597 84.071 97.2531 83.8137 96.9908C83.2734 96.3812 83.0038 95.6105 83.0568 94.8303C83.0435 94.291 83.159 93.756 83.3974 93.2613C83.597 92.843 83.9253 92.4855 84.3435 92.2325C84.7976 91.9882 85.3189 91.863 85.8478 91.8725C86.3738 91.8596 86.8932 91.9848 87.3426 92.2325C87.7627 92.4803 88.0919 92.8353 88.2887 93.2528C88.7428 94.2644 88.7428 95.3961 88.2887 96.4078C88.0872 96.8227 87.7589 97.1768 87.3426 97.428C86.9036 97.6604 86.4031 97.7821 85.8951 97.7795H85.8762ZM85.8762 96.5192C86.0616 96.5184 86.2442 96.4772 86.4079 96.3992C86.5725 96.322 86.7144 96.2106 86.8223 96.0734C87.0559 95.6919 87.178 95.2624 87.178 94.826C87.178 94.3896 87.0559 93.9601 86.8223 93.5786C86.7059 93.4397 86.5554 93.3274 86.3833 93.2502C86.2111 93.173 86.0209 93.1327 85.8288 93.1327C85.6368 93.1327 85.4466 93.173 85.2744 93.2502C85.1022 93.3274 84.9518 93.4397 84.8354 93.5786C84.5677 93.9489 84.4381 94.3879 84.4665 94.8303C84.4371 95.2675 84.5668 95.7013 84.8354 96.0648C84.9509 96.2192 85.1108 96.3435 85.2971 96.4232C85.4835 96.5029 85.6898 96.5364 85.8951 96.5192H85.8762ZM93.2179 97.7795C92.8309 97.7958 92.4449 97.7332 92.0882 97.596C91.7316 97.4597 91.4127 97.2531 91.1554 96.9908C90.6152 96.3812 90.3455 95.6105 90.3985 94.8303C90.3853 94.291 90.5007 93.756 90.7391 93.2613C90.9387 92.843 91.267 92.4855 91.6852 92.2325C92.1393 91.9882 92.6606 91.863 93.1895 91.8725C93.7155 91.8596 94.2349 91.9848 94.6843 92.2325C95.1044 92.4803 95.4337 92.8353 95.6305 93.2528C96.0846 94.2644 96.0846 95.3961 95.6305 96.4078C95.4289 96.8227 95.1006 97.1768 94.6843 97.428C94.2453 97.6604 93.7449 97.7821 93.2368 97.7795H93.2179ZM93.2179 96.5192C93.4109 96.5252 93.603 96.4875 93.7761 96.4095C93.9492 96.3315 94.0987 96.2166 94.2113 96.0734C94.445 95.6919 94.567 95.2624 94.567 94.826C94.567 94.3896 94.445 93.9601 94.2113 93.5786C94.0949 93.4397 93.9445 93.3274 93.7723 93.2502C93.6001 93.173 93.41 93.1327 93.2179 93.1327C93.0258 93.1327 92.8357 93.173 92.6635 93.2502C92.4913 93.3274 92.3409 93.4397 92.2245 93.5786C91.9567 93.9489 91.8271 94.3879 91.8555 94.8303C91.8262 95.2675 91.9558 95.7013 92.2245 96.0648C92.3361 96.2132 92.4875 96.3323 92.6654 96.4121C92.8423 96.4918 93.0391 96.5287 93.2368 96.5192H93.2179ZM98.0525 97.6509V90.2778L99.5 89.6777V97.6509H98.0525Z" fill="#D2D3D5"/>
</svg>
