<svg width="189" height="186" viewBox="0 0 189 186" fill="none" xmlns="http://www.w3.org/2000/svg">
<path d="M139.218 123.71C133.109 129.356 125.653 133.736 117.387 136.53C109.121 139.326 100.252 140.467 91.4242 139.872C82.5957 139.277 74.0281 136.961 66.3412 133.089C58.6543 129.218 52.0405 123.891 46.9786 117.492C52.645 117.106 58.1109 115.473 62.8758 112.745C62.8758 112.745 59.2832 113.583 54.7745 114.2C49.1787 111.647 44.4878 107.786 41.2152 103.042C37.9425 98.2976 36.2141 92.8518 36.2188 87.3003V0.524048C53.3288 16.7952 65.3329 36.7114 71.0489 58.3116C71.516 60.068 71.965 61.8402 72.3782 63.6441C72.3782 63.6441 72.5578 59.4034 72.5039 55.3684C76.9015 46.4509 83.1867 38.3526 91.0238 31.5065C93.1723 29.6048 95.4328 27.8037 97.7958 26.1107C97.6521 27.3449 94.3469 62.9637 93.6104 70.7647C90.431 71.5084 87.2875 72.173 87.2875 72.173C89.3518 72.2686 91.4204 72.2686 93.4847 72.173C94.293 72.173 95.1373 72.173 96.0354 72.173C100.644 72.1773 105.062 73.7928 108.319 76.665C111.576 79.5369 113.406 83.4306 113.406 87.4902C113.406 99.4211 100.634 102.19 100.454 102.301L95.6762 103.424C97.4725 99.6426 98.4784 97.095 96.6102 94.0886C95.5924 92.4415 93.8738 91.2177 91.8321 90.6865C91.0818 90.4816 90.3002 90.3803 89.5149 90.3859C87.7202 90.3775 85.9729 90.8932 84.5461 91.8522C83.1193 92.8113 82.0937 94.1598 81.6291 95.6868C80.0387 102.052 80.8265 108.699 83.8754 114.638C86.9243 120.576 92.0705 125.487 98.5466 128.639C105.023 131.79 112.482 133.013 119.812 132.125C127.141 131.236 133.948 128.285 139.218 123.71Z" fill="#0A4368"/>
<path d="M100.993 31.3325H159.588V87.3636C159.588 101.462 153.555 115.043 142.691 125.395C131.827 135.749 116.931 142.115 100.975 143.221L97.6699 105.972C102.993 105.61 107.966 103.492 111.593 100.04C115.22 96.589 117.235 92.0591 117.235 87.3557C117.235 82.6524 115.22 78.1223 111.593 74.671C107.966 71.2196 102.993 69.1013 97.6699 68.7393L100.993 31.3325Z" fill="#FA5E37"/>
<path d="M6.05907 180.991C4.95992 181.006 3.88178 180.724 2.96945 180.184C2.04579 179.632 1.32224 178.858 0.885742 177.953L3.36463 176.909C3.61557 177.385 3.98381 177.808 4.44241 178.143C4.91753 178.444 5.49324 178.594 6.07704 178.57C6.39372 178.569 6.70844 178.526 7.01111 178.444C7.31361 178.357 7.58988 178.211 7.81945 178.017C8.07955 177.781 8.27067 177.493 8.37629 177.178C8.53311 176.722 8.60587 176.246 8.59185 175.77V166.481H11.5737V175.865C11.5996 176.719 11.4284 177.57 11.0707 178.365C10.7905 178.98 10.3396 179.525 9.75944 179.947C9.23564 180.333 8.62257 180.613 7.96315 180.77C7.34361 180.923 6.70251 180.998 6.05907 180.991ZM22.4054 180.991C21.2649 181.025 20.134 180.8 19.1182 180.343C18.2498 179.933 17.5094 179.339 16.9626 178.618C16.4111 177.893 16.0041 177.089 15.7591 176.244C15.2565 174.521 15.2565 172.714 15.7591 170.991C16.0071 170.141 16.4138 169.334 16.9626 168.602C17.5247 167.885 18.2689 167.295 19.1361 166.877C20.1562 166.431 21.2852 166.214 22.4233 166.244C23.5618 166.211 24.6917 166.427 25.7106 166.877C26.5778 167.295 27.3222 167.885 27.8841 168.602C28.4397 169.331 28.8469 170.14 29.0876 170.991C29.5659 172.717 29.5659 174.518 29.0876 176.244C28.8503 177.093 28.4427 177.896 27.8841 178.618C27.3323 179.343 26.5855 179.934 25.7106 180.343C24.675 180.814 23.5164 181.039 22.3515 180.991H22.4054ZM22.4054 178.57C23.0777 178.586 23.7404 178.428 24.3094 178.112C24.8338 177.808 25.2656 177.395 25.5669 176.909C25.8859 176.415 26.1162 175.882 26.2494 175.327C26.3901 174.776 26.4625 174.214 26.465 173.649C26.4654 173.053 26.3931 172.459 26.2494 171.877C26.1212 171.323 25.8972 170.788 25.5848 170.295C25.2776 169.822 24.8465 169.42 24.3274 169.124C23.7449 168.825 23.079 168.678 22.4054 168.697C21.7264 168.671 21.0553 168.833 20.4833 169.155C19.959 169.459 19.5273 169.872 19.2259 170.358C18.9143 170.855 18.6843 171.387 18.5433 171.94C18.4075 172.497 18.3413 173.064 18.3457 173.633C18.3495 174.224 18.4158 174.811 18.5433 175.39C18.6809 175.947 18.9173 176.48 19.2439 176.972C19.5439 177.445 19.9768 177.844 20.5013 178.127C21.0565 178.43 21.6992 178.583 22.3515 178.57H22.4054ZM39.8474 180.991C38.7066 181.028 37.5746 180.805 36.5602 180.343C35.6822 179.939 34.9345 179.346 34.3867 178.618C33.8282 177.896 33.4206 177.093 33.1831 176.244C32.6805 174.521 32.6805 172.714 33.1831 170.991C33.4239 170.14 33.8313 169.331 34.3867 168.602C34.9446 167.882 35.6899 167.291 36.5602 166.877C37.5916 166.461 38.7129 166.244 39.8474 166.244C40.9821 166.244 42.1034 166.461 43.1346 166.877C43.9965 167.295 44.7348 167.886 45.2902 168.602C45.8458 169.331 46.253 170.14 46.4937 170.991C46.9965 172.714 46.9965 174.521 46.4937 176.244C46.2564 177.093 45.8488 177.896 45.2902 178.618C44.7452 179.341 44.0044 179.934 43.1346 180.343C42.1204 180.805 40.9882 181.028 39.8474 180.991ZM39.8474 178.57C40.4838 178.572 41.1071 178.412 41.6437 178.112C42.168 177.808 42.5999 177.395 42.9011 176.909C43.2262 176.417 43.4625 175.884 43.6017 175.327C43.7664 174.766 43.8688 174.195 43.907 173.618C43.9043 173.023 43.8382 172.429 43.7094 171.845C43.5751 171.29 43.3448 170.757 43.0269 170.263C42.7265 169.792 42.3013 169.39 41.7874 169.092C41.2049 168.793 40.539 168.646 39.8654 168.665C39.1862 168.638 38.5144 168.798 37.9433 169.124C37.4145 169.423 36.9816 169.837 36.6859 170.326C36.3595 170.817 36.1289 171.352 36.0033 171.909C35.8618 172.464 35.7894 173.032 35.7878 173.602C35.7885 174.192 35.8607 174.781 36.0033 175.358C36.1427 175.912 36.3727 176.445 36.6859 176.941C36.9859 177.414 37.4188 177.812 37.9433 178.096C38.5119 178.414 39.1738 178.58 39.8474 178.57ZM57.2894 180.754V166.513H60.1635V172.225H67.1152V166.513H69.9713V180.754H67.1152V174.599H60.1635V180.754H57.2894ZM75.8632 168.95C75.648 168.951 75.4342 168.917 75.2348 168.844C75.0354 168.773 74.8542 168.666 74.702 168.532C74.5497 168.399 74.4294 168.239 74.3482 168.064C74.2668 167.888 74.2262 167.7 74.2285 167.51C74.2204 167.321 74.258 167.133 74.3385 166.959C74.4189 166.785 74.5407 166.627 74.6956 166.497C74.8464 166.359 75.0279 166.25 75.2289 166.176C75.4297 166.103 75.6456 166.067 75.8632 166.07C76.0792 166.065 76.2939 166.1 76.4946 166.171C76.695 166.241 76.8772 166.347 77.03 166.481C77.1827 166.617 77.3031 166.777 77.3834 166.954C77.4638 167.13 77.5028 167.32 77.4978 167.51C77.5003 167.7 77.4595 167.888 77.3783 168.064C77.297 168.239 77.1768 168.399 77.0245 168.532C76.8721 168.666 76.6911 168.773 76.4917 168.844C76.2921 168.917 76.0785 168.951 75.8632 168.95ZM74.4441 180.754V170.326H77.2104V180.754H74.4441ZM85.653 185.09L84.18 183.112C85.0645 183.067 85.9425 182.95 86.8026 182.764C87.3133 182.669 87.7778 182.436 88.1319 182.099C88.3973 181.773 88.5303 181.378 88.5091 180.976V180.121C88.1768 180.436 87.769 180.681 87.3153 180.841C86.8617 180.999 86.3736 181.067 85.8865 181.039C84.9556 181.059 84.0402 180.827 83.2639 180.374C82.4642 179.92 81.8383 179.264 81.4676 178.491C80.6659 176.626 80.6659 174.565 81.4676 172.7C81.8524 171.931 82.4748 171.273 83.2639 170.801C84.0347 170.35 84.9436 170.119 85.8685 170.136C86.3704 170.133 86.8691 170.209 87.3415 170.358C87.7654 170.494 88.1469 170.717 88.4552 171.007V170.374H91.2215V179.947C91.2321 180.719 91.1354 181.49 90.9341 182.241C90.7713 182.833 90.4372 183.379 89.9641 183.824C89.4643 184.261 88.8459 184.575 88.1678 184.742C87.3585 184.938 86.5272 185.055 85.6889 185.09H85.653ZM86.3176 178.665C86.7379 178.664 87.1513 178.572 87.5211 178.396C87.8897 178.211 88.213 177.964 88.4731 177.668V173.396C88.2296 173.1 87.9116 172.857 87.5439 172.687C87.1762 172.516 86.7688 172.423 86.3535 172.415C85.9786 172.396 85.6043 172.458 85.2628 172.595C84.9215 172.735 84.6239 172.944 84.3956 173.206C83.8859 173.895 83.6461 174.713 83.713 175.532C83.6914 176.108 83.7951 176.683 84.0183 177.225C84.1976 177.646 84.5091 178.015 84.9165 178.286C85.3345 178.55 85.84 178.683 86.3535 178.665H86.3176ZM95.5685 180.754V167.162L98.3348 166.038V171.355C98.6948 170.945 99.1636 170.619 99.7 170.405C100.266 170.189 100.879 170.081 101.496 170.089C102.307 170.065 103.109 170.241 103.814 170.595C104.426 170.947 104.902 171.455 105.179 172.051C105.505 172.77 105.664 173.54 105.646 174.314V180.754H102.915V174.963C102.965 174.293 102.784 173.626 102.394 173.048C102.207 172.823 101.955 172.648 101.665 172.535C101.375 172.425 101.056 172.383 100.742 172.415C100.409 172.388 100.073 172.429 99.7611 172.537C99.4492 172.645 99.1701 172.814 98.9456 173.032C98.5049 173.58 98.2953 174.246 98.3528 174.915V180.754H95.5685ZM121.651 180.991C120.715 181.001 119.787 180.844 118.92 180.533C118.119 180.237 117.401 179.789 116.819 179.219C116.232 178.654 115.791 177.985 115.525 177.257L118.112 176.403C118.449 177.028 118.955 177.572 119.585 177.985C120.199 178.396 120.952 178.613 121.723 178.602C122.433 178.635 123.137 178.469 123.734 178.127C123.985 177.971 124.185 177.762 124.318 177.518C124.45 177.274 124.508 177.004 124.489 176.735C124.488 176.35 124.329 175.979 124.04 175.691C123.695 175.382 123.287 175.135 122.836 174.963C122.333 174.757 121.776 174.567 121.166 174.377C120.555 174.187 119.98 173.997 119.369 173.776C118.791 173.57 118.243 173.304 117.735 172.985C117.239 172.673 116.828 172.266 116.531 171.798C116.208 171.225 116.055 170.589 116.086 169.95C116.117 169.311 116.332 168.689 116.711 168.143C117.162 167.549 117.781 167.07 118.507 166.75C119.421 166.388 120.416 166.215 121.417 166.244C122.261 166.226 123.1 166.366 123.878 166.655C124.563 166.902 125.177 167.28 125.674 167.763C126.131 168.22 126.469 168.76 126.662 169.345L124.094 170.089C123.855 169.616 123.456 169.219 122.951 168.953C122.446 168.685 121.86 168.564 121.274 168.602C120.644 168.553 120.013 168.685 119.477 168.981C119.28 169.1 119.12 169.261 119.013 169.45C118.906 169.638 118.856 169.847 118.866 170.057C118.861 170.216 118.896 170.372 118.967 170.518C119.038 170.662 119.145 170.792 119.28 170.896C119.607 171.146 119.977 171.349 120.375 171.497C120.842 171.676 121.363 171.85 121.938 172.02C122.567 172.209 123.196 172.431 123.734 172.668C124.376 172.891 124.98 173.189 125.531 173.554C126.046 173.901 126.475 174.336 126.788 174.836C127.112 175.417 127.272 176.056 127.255 176.703C127.288 177.524 127.024 178.333 126.501 179.013C125.975 179.654 125.261 180.158 124.435 180.469C123.567 180.802 122.633 180.979 121.687 180.991H121.651ZM135.339 180.991C134.356 181.015 133.388 180.784 132.554 180.327C131.76 179.868 131.135 179.213 130.758 178.444C130.318 177.529 130.103 176.542 130.129 175.548C130.1 174.553 130.322 173.564 130.776 172.652C131.153 171.879 131.777 171.22 132.572 170.754C133.418 170.296 134.399 170.065 135.393 170.089C136.449 170.049 137.492 170.304 138.374 170.817C139.233 171.341 139.865 172.105 140.171 172.985L137.548 173.776C137.386 173.38 137.108 173.031 136.74 172.763C136.377 172.526 135.933 172.404 135.482 172.415C135.127 172.412 134.776 172.488 134.464 172.635C134.15 172.781 133.884 172.994 133.686 173.254C133.25 173.955 133.02 174.741 133.02 175.54C133.02 176.339 133.25 177.126 133.686 177.827C133.877 178.093 134.142 178.309 134.459 178.457C134.773 178.604 135.127 178.675 135.482 178.665C135.971 178.678 136.447 178.537 136.83 178.27C137.23 177.979 137.518 177.586 137.656 177.146L140.279 177.843C139.996 178.784 139.362 179.613 138.482 180.2C137.57 180.751 136.479 181.028 135.375 180.991H135.339ZM143.817 180.754V167.162L146.584 166.038V171.355C146.943 170.945 147.412 170.619 147.949 170.405C148.515 170.189 149.127 170.081 149.745 170.089C150.555 170.065 151.358 170.241 152.062 170.595C152.675 170.947 153.151 171.455 153.427 172.051C153.754 172.77 153.912 173.54 153.894 174.314V180.754H151.128V174.963C151.178 174.293 150.997 173.626 150.607 173.048C150.419 172.823 150.167 172.648 149.878 172.535C149.587 172.425 149.269 172.383 148.955 172.415C148.621 172.388 148.285 172.429 147.974 172.537C147.661 172.645 147.383 172.814 147.158 173.032C146.718 173.58 146.508 174.246 146.566 174.915V180.754H143.817ZM162.984 180.991C162.249 181.022 161.516 180.906 160.839 180.653C160.162 180.401 159.556 180.02 159.068 179.536C158.042 178.411 157.53 176.988 157.631 175.548C157.606 174.553 157.825 173.565 158.277 172.652C158.656 171.88 159.28 171.22 160.074 170.754C160.936 170.303 161.926 170.072 162.93 170.089C163.929 170.065 164.915 170.296 165.768 170.754C166.566 171.211 167.191 171.866 167.564 172.637C168.426 174.504 168.426 176.592 167.564 178.46C167.182 179.226 166.558 179.879 165.768 180.343C164.934 180.771 163.984 180.996 163.02 180.991H162.984ZM162.984 178.665C163.336 178.664 163.682 178.588 163.993 178.444C164.306 178.301 164.575 178.096 164.78 177.843C165.224 177.138 165.455 176.346 165.455 175.54C165.455 174.735 165.224 173.942 164.78 173.238C164.559 172.982 164.273 172.774 163.947 172.632C163.62 172.489 163.259 172.415 162.894 172.415C162.529 172.415 162.168 172.489 161.841 172.632C161.514 172.774 161.229 172.982 161.008 173.238C160.499 173.921 160.253 174.732 160.307 175.548C160.252 176.355 160.498 177.156 161.008 177.827C161.227 178.112 161.53 178.341 161.884 178.488C162.238 178.635 162.63 178.697 163.02 178.665H162.984ZM176.923 180.991C176.188 181.022 175.455 180.906 174.778 180.653C174.101 180.401 173.496 180.02 173.007 179.536C171.981 178.411 171.469 176.988 171.57 175.548C171.545 174.553 171.764 173.565 172.217 172.652C172.596 171.88 173.219 171.22 174.013 170.754C174.875 170.303 175.865 170.072 176.869 170.089C177.868 170.065 178.854 170.296 179.707 170.754C180.505 171.211 181.13 171.866 181.504 172.637C182.366 174.504 182.366 176.592 181.504 178.46C181.121 179.226 180.498 179.879 179.707 180.343C178.874 180.771 177.923 180.996 176.959 180.991H176.923ZM176.923 178.665C177.289 178.676 177.654 178.607 177.983 178.463C178.311 178.319 178.595 178.107 178.809 177.843C179.253 177.138 179.484 176.346 179.484 175.54C179.484 174.735 179.253 173.942 178.809 173.238C178.588 172.982 178.303 172.774 177.976 172.632C177.649 172.489 177.288 172.415 176.923 172.415C176.558 172.415 176.197 172.489 175.87 172.632C175.543 172.774 175.258 172.982 175.037 173.238C174.529 173.921 174.282 174.732 174.336 175.548C174.281 176.355 174.527 177.156 175.037 177.827C175.249 178.1 175.536 178.32 175.874 178.468C176.21 178.615 176.583 178.683 176.959 178.665H176.923ZM186.102 180.754V167.146L188.85 166.038V180.754H186.102Z" fill="#0A4368"/>
</svg>
